<?xml version="1.0" encoding="UTF-8" standalone="no"?><!-- Generator: Gravit.io --><svg xmlns="http://www.w3.org/2000/svg" xmlns:xlink="http://www.w3.org/1999/xlink" style="isolation:isolate" viewBox="0 0 2000 2000" width="2000pt" height="2000pt"><defs><clipPath id="_clipPath_6vb06twYFNdLuAX8lsWrcWRu4lUQxDEG"><rect width="2000" height="2000"/></clipPath></defs><g clip-path="url(#_clipPath_6vb06twYFNdLuAX8lsWrcWRu4lUQxDEG)"><g><g><path d=" M 907.608 348.046 C 882.108 400.646 861.408 443.846 861.608 444.046 C 861.808 444.246 872.208 445.046 884.708 445.746 L 907.408 447.146 L 915.708 428.146 C 920.208 417.746 924.008 408.946 924.108 408.846 C 924.508 408.346 990.108 412.546 995.508 413.446 L 999.908 414.146 L 1005.508 434.146 L 1011.108 454.146 L 1034.108 455.646 C 1046.708 456.446 1057.108 456.946 1057.208 456.646 C 1057.408 456.346 1042.408 410.946 1024.108 355.646 L 990.708 255.146 L 984.308 254.546 C 980.808 254.146 972.608 253.546 966.008 253.146 L 953.908 252.446 L 907.608 348.046 Z  M 978.908 340.346 C 984.208 359.146 988.508 375.146 988.508 375.946 C 988.508 377.046 987.508 377.346 984.308 377.046 C 981.908 376.746 971.108 375.946 960.208 375.146 C 949.208 374.446 940.108 373.546 939.808 373.346 C 939.608 373.046 945.708 358.046 953.508 339.946 C 968.208 305.946 968.508 305.346 969.008 305.846 C 969.108 306.046 973.608 321.546 978.908 340.346 Z " fill="rgb(0,79,82)"/><path d=" M 721.708 282.746 C 717.008 283.346 642.508 306.746 640.708 308.146 C 640.608 308.246 654.508 350.546 671.608 402.046 C 692.208 464.246 703.008 495.646 703.808 495.346 C 704.508 495.146 713.608 492.146 724.008 488.646 C 734.508 485.246 743.208 482.246 743.408 482.046 C 743.608 481.946 738.708 466.846 732.708 448.746 C 726.608 430.546 721.908 415.646 722.208 415.646 C 722.508 415.646 737.508 427.146 755.508 441.146 C 773.508 455.146 788.908 466.646 789.608 466.646 C 791.508 466.646 840.508 450.246 840.508 449.646 C 840.508 449.346 823.608 437.946 803.008 424.246 C 782.408 410.546 765.508 399.046 765.508 398.746 C 765.508 398.446 767.508 396.546 770.008 394.646 C 775.508 390.346 783.008 380.846 786.108 374.146 C 790.408 364.846 791.808 357.146 791.208 345.646 C 789.308 306.146 758.208 278.146 721.708 282.746 Z  M 730.908 319.846 C 733.608 320.646 737.008 323.046 740.708 326.646 C 745.308 331.346 746.708 333.446 748.408 339.046 C 750.908 347.146 751.108 352.646 748.908 358.846 C 747.108 364.246 741.608 371.046 737.208 373.346 C 734.808 374.546 712.008 382.646 710.908 382.646 C 710.308 382.646 692.308 327.446 692.808 327.046 C 693.008 326.846 698.308 324.846 704.608 322.746 C 716.908 318.546 723.808 317.746 730.908 319.846 Z " fill="rgb(0,79,82)"/><path d=" M 515.808 380.846 L 498.608 392.946 L 503.908 400.546 C 514.608 415.746 565.608 489.046 588.008 521.346 C 600.708 539.646 611.508 554.446 612.008 554.246 C 613.608 553.746 646.508 530.546 646.508 529.946 C 646.508 529.646 627.708 502.346 604.608 469.246 C 538.808 374.646 535.008 369.346 534.008 369.046 C 533.408 368.846 525.308 374.246 515.808 380.846 Z " fill="rgb(0,79,82)"/><path d=" M 411.008 506.746 C 383.708 510.546 358.008 525.946 341.908 548.246 C 336.208 556.246 329.108 571.246 326.308 581.246 C 324.408 588.046 324.108 591.746 324.108 607.146 C 324.108 626.946 325.208 632.846 331.508 647.946 C 343.008 675.546 369.408 698.046 399.508 705.646 C 416.608 710.046 439.408 709.346 455.508 704.046 C 483.408 694.646 504.408 676.146 516.708 649.946 C 529.508 622.746 529.208 591.846 516.008 563.946 C 510.608 552.446 507.008 547.246 498.108 537.846 C 491.608 530.946 480.308 521.646 478.508 521.646 C 478.108 521.646 465.508 538.846 450.508 559.846 C 435.508 580.946 422.808 598.546 422.408 599.146 C 421.808 600.046 446.408 618.646 448.208 618.646 C 448.608 618.546 455.308 609.646 463.008 598.646 C 470.708 587.646 477.308 578.646 477.608 578.646 C 478.708 578.646 484.308 589.946 485.908 595.546 C 488.008 602.546 488.008 615.746 485.908 622.746 C 483.308 631.646 477.408 641.746 470.608 648.946 C 452.008 668.646 420.808 672.246 395.708 657.446 C 386.208 651.946 376.308 641.146 371.708 631.446 C 366.508 620.546 365.008 614.146 365.108 602.646 C 365.308 586.446 371.008 573.946 383.908 561.946 C 387.308 558.746 392.508 554.846 395.308 553.346 C 401.608 549.946 413.808 547.546 421.508 548.246 L 427.008 548.746 L 439.708 530.746 C 446.808 520.946 452.808 512.146 453.108 511.346 C 454.408 507.746 426.108 504.646 411.008 506.746 Z " fill="rgb(0,79,82)"/><path d=" M 929.008 520.746 C 838.308 525.746 747.608 557.646 675.008 610.046 C 613.108 654.646 564.408 709.746 528.208 776.146 C 507.608 814.046 490.608 859.846 481.608 902.146 C 472.708 943.646 471.108 960.246 471.108 1007.646 C 471.108 1054.846 472.908 1072.546 482.108 1114.646 C 497.308 1183.846 529.208 1251.146 573.908 1308.146 C 600.708 1342.246 640.708 1380.346 676.008 1405.346 C 699.108 1421.646 717.708 1432.546 746.608 1446.546 C 769.508 1457.646 782.808 1463.046 805.508 1470.446 C 881.408 1495.146 959.808 1500.846 1041.008 1487.546 C 1059.208 1484.546 1095.508 1475.246 1115.208 1468.546 C 1205.008 1437.846 1284.408 1380.746 1344.008 1304.146 C 1353.308 1292.146 1374.208 1260.646 1381.208 1248.146 C 1409.908 1196.646 1427.008 1148.946 1437.408 1091.146 C 1446.808 1039.246 1446.808 974.946 1437.408 923.146 C 1432.508 896.046 1429.608 884.346 1421.308 858.146 C 1402.208 797.846 1370.208 740.346 1327.808 690.446 C 1309.308 668.646 1279.908 640.746 1256.008 622.146 C 1193.108 573.146 1119.108 540.446 1041.408 527.246 C 1002.208 520.546 967.908 518.646 929.008 520.746 Z  M 949.008 531.846 C 948.608 535.346 947.808 541.746 947.108 546.146 L 946.008 554.146 L 940.508 554.346 C 856.208 557.946 776.108 584.346 705.408 631.646 C 658.108 663.446 613.508 708.346 582.008 756.146 C 552.308 801.246 531.708 847.946 519.708 897.646 C 512.108 928.846 509.208 948.246 507.408 979.646 C 506.708 990.946 506.108 1000.246 506.008 1000.446 C 505.908 1000.546 500.508 1001.346 493.908 1002.146 C 487.408 1002.946 480.808 1003.846 479.308 1004.146 L 476.508 1004.546 L 476.508 994.346 C 476.508 973.846 480.908 934.846 486.008 910.046 C 489.108 895.146 497.108 866.046 502.308 850.646 C 510.008 828.146 519.208 807.046 531.308 784.146 C 555.708 737.846 582.708 701.546 619.708 664.946 C 678.508 606.946 745.608 567.846 828.508 543.246 C 854.008 535.646 900.108 528.046 928.508 526.746 C 937.608 526.346 946.008 525.846 947.308 525.846 C 949.608 525.646 949.608 525.746 949.008 531.846 Z  M 983.508 526.646 C 1005.308 527.746 1028.808 530.746 1053.808 535.646 C 1162.708 557.246 1263.508 619.346 1335.108 709.246 C 1387.408 774.846 1423.208 858.946 1434.008 941.646 C 1436.308 958.946 1438.508 984.946 1438.508 995.546 L 1438.508 1004.846 L 1435.308 1004.346 C 1433.508 1003.946 1427.308 1003.246 1421.508 1002.546 C 1415.708 1001.946 1410.708 1001.146 1410.208 1000.746 C 1409.808 1000.346 1409.008 991.746 1408.508 981.546 C 1404.608 911.346 1385.308 845.046 1350.908 783.946 C 1309.308 710.046 1247.808 649.846 1170.908 607.846 C 1141.508 591.846 1098.708 575.146 1066.208 567.246 C 1039.008 560.546 1003.708 555.746 975.508 554.846 L 956.008 554.146 L 954.908 546.146 C 954.208 541.746 953.408 535.346 953.008 531.846 L 952.308 525.646 L 957.708 525.646 C 960.608 525.646 972.208 526.146 983.508 526.646 Z  M 957.008 578.146 C 960.808 608.546 968.308 666.346 974.608 714.646 C 976.808 731.446 980.608 760.646 983.008 779.646 C 988.408 822.546 994.208 866.946 1000.008 911.146 C 1002.508 929.846 1004.508 946.546 1004.508 948.146 C 1004.508 950.746 1001.308 954.446 981.108 974.546 L 957.708 997.846 L 957.108 968.546 C 956.808 952.346 956.308 912.346 956.008 879.646 C 955.708 846.946 954.808 765.446 954.008 698.646 C 952.508 579.546 952.408 545.646 953.108 548.646 C 953.308 549.446 955.108 562.746 957.008 578.146 Z  M 945.208 563.846 C 944.808 565.646 942.308 584.446 939.608 605.646 C 931.108 670.946 926.508 706.546 924.508 721.546 C 923.508 729.446 922.508 736.046 922.308 736.246 C 922.108 736.446 917.008 737.546 910.908 738.646 C 885.208 743.646 868.208 748.846 847.508 758.046 C 821.308 769.746 795.408 786.746 775.108 805.646 C 770.908 809.546 767.008 812.646 766.608 812.446 C 765.808 812.146 746.808 791.646 676.508 715.246 C 661.908 699.446 649.908 685.946 649.808 685.346 C 649.608 683.846 665.208 669.746 681.008 657.046 C 693.108 647.446 725.108 625.746 738.708 618.046 C 798.308 584.046 875.008 562.246 939.408 560.746 L 945.708 560.646 L 945.208 563.846 Z  M 1012.108 563.646 C 1091.108 573.546 1167.508 604.846 1229.508 653.046 C 1237.508 659.246 1261.208 679.546 1264.208 682.846 L 1266.408 685.246 L 1205.008 746.646 L 1143.608 808.046 L 1139.008 804.046 C 1111.008 780.246 1086.808 765.246 1057.508 753.646 C 1037.208 745.546 1011.008 738.846 990.708 736.546 C 980.608 735.446 979.408 735.046 979.008 733.246 C 978.608 731.246 975.908 710.146 963.508 614.146 C 960.208 588.246 957.208 565.646 956.908 563.746 L 956.308 560.346 L 976.208 560.946 C 987.108 561.346 1003.308 562.546 1012.108 563.646 Z  M 679.708 727.646 C 698.608 748.246 723.508 775.246 735.008 787.646 C 746.408 800.046 757.008 812.146 758.608 814.546 L 761.408 818.946 L 756.708 824.146 C 721.508 862.646 697.508 913.146 690.008 964.146 C 689.008 970.746 688.108 976.346 687.908 976.446 C 687.808 976.646 677.808 978.046 665.808 979.646 C 609.708 986.946 578.408 991.046 547.108 995.246 C 528.508 997.646 513.008 999.446 512.708 999.146 C 512.408 998.846 512.608 990.446 513.308 980.346 C 517.408 916.046 532.808 859.346 561.108 804.146 C 577.608 771.846 594.208 746.746 616.908 719.646 C 626.308 708.346 643.808 689.646 644.608 689.946 C 644.908 690.046 660.708 707.046 679.708 727.646 Z  M 1280.108 698.846 C 1339.808 760.746 1382.208 844.546 1396.408 929.146 C 1400.708 954.546 1404.608 998.046 1402.708 999.746 C 1402.308 1000.146 1395.708 999.546 1388.008 998.546 C 1376.208 996.946 1319.508 989.646 1246.308 980.246 C 1236.508 979.046 1228.308 977.846 1228.108 977.546 C 1227.908 977.346 1227.008 971.946 1226.008 965.646 C 1218.208 911.646 1192.008 858.046 1154.708 819.446 C 1150.108 814.746 1149.308 813.346 1150.108 811.746 C 1151.008 809.846 1269.508 689.846 1270.608 689.746 C 1270.908 689.646 1275.208 693.846 1280.108 698.846 Z  M 1003.508 744.846 C 1048.708 752.146 1092.708 772.846 1129.908 804.246 C 1133.708 807.546 1137.008 810.646 1137.208 811.246 C 1137.508 812.246 1127.508 819.646 1125.708 819.646 C 1125.308 819.646 1121.108 816.446 1116.508 812.546 C 1082.508 784.346 1037.008 764.146 993.608 758.246 C 987.908 757.446 982.908 756.446 982.408 755.946 C 982.008 755.546 981.308 752.046 980.908 748.346 L 980.208 741.546 L 985.608 742.146 C 988.608 742.546 996.608 743.746 1003.508 744.846 Z  M 921.008 750.346 C 920.608 754.146 920.008 757.446 919.608 757.846 C 919.308 758.146 915.008 759.246 910.008 760.146 C 905.108 761.046 896.308 763.146 890.508 764.846 C 851.908 775.946 818.908 794.546 787.008 823.046 L 781.908 827.546 L 775.708 823.446 C 772.308 821.246 769.808 819.046 770.108 818.546 C 771.308 816.446 789.808 800.646 798.908 793.746 C 816.608 780.346 840.008 767.246 860.308 759.246 C 878.608 752.046 908.708 744.046 918.808 743.746 L 921.708 743.646 L 921.008 750.346 Z  M 1015.008 768.546 C 1041.508 774.646 1069.808 787.046 1093.808 803.346 C 1104.708 810.646 1119.508 822.346 1119.508 823.546 C 1119.408 824.346 1001.408 901.846 1000.908 901.346 C 1000.708 901.246 998.708 886.646 996.508 869.146 C 994.208 851.546 990.208 820.746 987.508 800.646 C 984.908 780.546 982.908 763.846 983.108 763.546 C 983.508 762.746 1003.408 765.846 1015.008 768.546 Z  M 915.108 794.846 C 913.208 809.246 909.308 839.346 906.408 861.646 C 903.608 883.946 901.108 902.246 901.008 902.446 C 900.908 902.546 890.708 896.346 878.408 888.546 C 854.608 873.446 847.308 868.846 813.808 847.646 C 802.208 840.246 791.608 833.446 790.308 832.446 L 788.008 830.646 L 793.508 825.646 C 823.208 798.546 860.708 778.446 898.908 769.146 C 916.708 764.846 917.908 764.746 918.308 766.846 C 918.508 767.746 917.008 780.346 915.108 794.846 Z  M 1141.808 819.846 C 1137.608 826.446 1115.808 859.646 1082.708 910.146 C 1075.808 920.546 1066.408 934.946 1061.708 942.146 C 1057.008 949.246 1053.108 955.246 1053.008 955.446 C 1052.608 955.946 1017.108 951.546 1015.108 950.746 C 1013.508 950.146 1015.908 947.246 1031.508 931.046 C 1041.608 920.646 1071.408 889.746 1097.808 862.346 C 1124.208 835.046 1146.008 812.646 1146.108 812.646 C 1146.308 812.646 1144.408 815.946 1141.808 819.846 Z  M 1152.508 825.946 C 1180.008 855.246 1204.408 899.246 1213.908 937.146 C 1216.408 947.146 1219.808 964.246 1221.008 972.546 L 1221.608 976.946 L 1214.308 976.246 C 1210.408 975.946 1206.908 975.446 1206.708 975.146 C 1206.508 974.946 1205.208 969.246 1204.008 962.446 C 1201.208 947.646 1199.408 940.146 1195.308 927.646 C 1185.008 895.846 1166.908 864.446 1144.408 839.446 C 1140.608 835.246 1137.508 831.446 1137.508 831.146 C 1137.508 830.146 1144.508 818.646 1145.108 818.646 C 1145.408 818.646 1148.708 821.946 1152.508 825.946 Z  M 832.008 861.546 C 862.808 881.046 890.808 898.746 894.308 900.946 C 897.708 903.046 900.508 905.346 900.508 905.846 C 900.508 907.846 896.308 941.146 895.908 942.446 C 895.308 944.346 892.508 941.746 843.408 894.146 C 788.808 841.346 769.308 821.946 773.008 824.246 C 774.708 825.246 801.208 841.946 832.008 861.546 Z  M 768.808 830.446 C 770.808 833.646 772.508 836.646 772.508 837.046 C 772.508 837.446 769.508 841.246 765.908 845.446 C 757.908 854.746 742.708 877.646 735.708 890.746 C 724.708 911.446 715.508 938.846 711.008 964.746 L 709.408 974.346 L 704.208 975.046 C 694.008 976.246 694.208 976.346 695.008 970.346 C 696.408 959.346 702.708 932.646 706.608 921.146 C 718.008 887.646 736.108 856.446 759.908 829.546 C 762.208 826.946 764.208 824.846 764.508 824.746 C 764.808 824.746 766.708 827.246 768.808 830.446 Z  M 1141.108 844.946 C 1161.308 868.646 1178.408 897.346 1187.308 922.746 C 1193.508 940.246 1201.008 972.446 1199.308 974.146 C 1199.108 974.346 1195.808 974.146 1192.008 973.546 C 1188.108 973.046 1165.908 970.146 1142.508 967.146 C 1119.108 964.246 1090.308 960.546 1078.508 959.046 C 1066.708 957.546 1056.708 956.046 1056.308 955.646 C 1055.808 955.346 1065.508 939.746 1077.808 921.146 C 1090.008 902.446 1107.508 875.846 1116.508 861.946 C 1125.608 848.046 1133.208 836.746 1133.508 836.646 C 1133.808 836.646 1137.208 840.346 1141.108 844.946 Z  M 781.608 850.946 C 784.208 854.846 792.708 868.246 800.508 880.646 C 808.308 893.046 816.908 906.546 819.508 910.646 C 841.408 944.946 847.508 955.046 846.808 955.646 C 846.408 956.046 831.408 958.246 813.508 960.546 C 740.608 969.946 719.308 972.646 717.608 972.646 C 715.808 972.646 715.808 972.346 717.608 962.846 C 724.108 927.346 738.808 892.646 759.308 864.146 C 766.408 854.346 775.308 843.646 776.308 843.646 C 776.708 843.646 779.108 846.946 781.608 850.946 Z  M 923.808 974.846 C 939.308 987.546 952.208 998.146 952.408 998.346 C 952.608 998.446 952.608 998.846 952.408 999.046 C 952.108 999.446 846.308 1000.746 625.008 1003.146 C 598.108 1003.446 557.808 1003.946 535.508 1004.246 C 513.208 1004.646 495.208 1004.646 495.508 1004.346 C 495.808 1004.046 503.708 1002.846 513.008 1001.646 C 522.408 1000.446 546.708 997.346 567.008 994.646 C 587.408 991.946 626.708 986.746 654.508 983.146 C 682.308 979.546 723.708 974.146 746.508 971.146 C 769.308 968.146 800.608 964.046 816.008 962.046 C 831.408 960.046 854.808 956.946 868.008 955.146 C 881.208 953.346 892.808 951.846 893.808 951.746 C 894.808 951.646 908.208 961.946 923.808 974.846 Z  M 1253.908 1004.646 C 1345.208 1005.746 1420.108 1006.846 1420.308 1007.146 C 1420.608 1007.446 1420.108 1007.646 1419.308 1007.646 C 1417.908 1007.646 1384.608 1011.846 1271.508 1026.246 C 1243.208 1029.846 1197.308 1035.646 1169.508 1039.246 C 1141.708 1042.746 1097.608 1048.346 1071.508 1051.646 C 1045.408 1055.046 1020.108 1058.246 1015.208 1058.846 C 1010.408 1059.446 1006.308 1059.746 1006.108 1059.546 C 1001.008 1053.746 959.508 1002.446 959.508 1002.046 C 959.508 1001.346 990.808 1001.546 1253.908 1004.646 Z  M 953.608 1179.246 C 952.508 1275.446 951.208 1381.446 950.908 1414.946 C 950.508 1448.346 950.008 1475.546 949.808 1475.346 C 949.608 1475.146 947.008 1455.446 944.008 1431.546 C 938.608 1389.046 933.708 1350.546 921.508 1254.646 C 918.208 1228.546 912.608 1184.146 909.008 1156.146 C 905.408 1128.046 901.208 1095.446 899.708 1083.646 L 896.808 1062.146 L 925.808 1032.946 C 941.808 1016.846 955.108 1003.846 955.308 1004.046 C 955.408 1004.246 954.708 1083.146 953.608 1179.246 Z  M 1438.508 1017.346 C 1438.408 1035.246 1435.108 1069.146 1431.008 1093.746 C 1428.808 1106.846 1419.208 1143.746 1414.308 1158.146 C 1398.008 1206.246 1377.708 1246.146 1349.208 1286.546 C 1334.808 1306.946 1320.308 1324.046 1299.608 1345.046 C 1280.708 1364.246 1266.808 1376.446 1246.908 1391.446 C 1204.808 1423.046 1163.808 1444.946 1114.508 1462.146 C 1068.308 1478.346 1010.308 1488.546 965.308 1488.646 L 952.608 1488.646 L 953.008 1485.846 C 953.308 1484.346 954.208 1477.546 955.108 1470.646 C 955.908 1463.846 956.708 1458.146 956.808 1457.946 C 956.908 1457.846 966.508 1457.346 978.008 1456.746 C 1023.608 1454.346 1058.808 1447.846 1100.008 1434.246 C 1147.508 1418.446 1189.408 1396.346 1230.008 1365.646 C 1286.008 1323.346 1331.508 1268.346 1362.608 1205.246 C 1390.308 1149.246 1404.608 1094.146 1408.508 1028.646 C 1409.108 1019.046 1409.708 1011.046 1409.908 1010.946 C 1410.208 1010.646 1433.208 1007.146 1437.308 1006.746 C 1438.208 1006.646 1438.508 1009.346 1438.508 1017.346 Z  M 498.008 1010.046 L 506.008 1011.146 L 507.208 1030.646 C 509.208 1063.846 511.908 1081.646 519.708 1113.646 C 529.408 1153.846 546.008 1195.346 566.008 1229.646 C 582.508 1258.046 598.808 1280.746 619.008 1303.446 C 624.508 1309.746 630.108 1316.046 631.308 1317.646 C 634.808 1321.846 663.708 1348.346 673.008 1355.846 C 732.108 1403.246 793.108 1432.246 866.508 1448.046 C 887.308 1452.446 921.508 1456.646 937.308 1456.646 C 942.208 1456.646 944.708 1457.046 945.008 1457.846 C 945.908 1460.046 949.208 1487.646 948.708 1488.146 C 947.308 1489.546 915.308 1487.346 892.008 1484.246 C 829.908 1475.946 763.108 1452.346 708.908 1419.446 C 686.408 1405.746 661.008 1387.146 641.608 1370.246 C 553.408 1293.546 495.908 1186.746 480.508 1071.146 C 478.508 1056.046 476.508 1030.146 476.508 1018.746 L 476.508 1007.446 L 483.308 1008.146 C 487.008 1008.546 493.608 1009.346 498.008 1010.046 Z  M 1402.908 1021.846 C 1400.308 1074.346 1391.708 1116.746 1374.308 1163.446 C 1363.108 1193.346 1341.808 1233.746 1323.508 1259.646 C 1313.008 1274.646 1294.808 1297.246 1284.808 1307.746 L 1276.208 1316.646 L 1271.608 1312.446 C 1241.008 1284.746 1149.508 1199.346 1149.508 1198.646 C 1149.508 1198.046 1152.808 1194.146 1156.808 1189.846 C 1193.608 1150.346 1218.308 1098.946 1226.008 1045.646 C 1227.008 1039.346 1227.808 1034.046 1227.908 1033.946 C 1228.108 1033.746 1244.108 1031.646 1263.608 1029.146 C 1283.108 1026.646 1318.108 1022.146 1341.508 1019.146 C 1396.708 1012.046 1397.508 1011.946 1400.708 1011.746 L 1403.408 1011.646 L 1402.908 1021.846 Z  M 572.008 1019.646 C 597.308 1022.946 633.208 1027.746 651.808 1030.146 C 670.408 1032.646 686.208 1034.646 686.908 1034.646 C 687.708 1034.646 688.608 1037.846 689.408 1043.846 C 696.008 1094.046 722.008 1150.046 755.408 1185.946 L 759.908 1190.746 L 747.908 1202.646 C 741.408 1209.146 713.308 1236.646 685.508 1263.546 L 635.008 1312.646 L 630.708 1307.946 C 599.908 1273.746 577.608 1241.046 558.408 1202.146 C 536.108 1156.746 523.808 1116.146 516.508 1064.146 C 514.608 1050.646 512.508 1025.846 512.508 1016.746 L 512.508 1012.346 L 519.208 1012.946 C 522.908 1013.346 546.708 1016.346 572.008 1019.646 Z  M 1220.908 1038.846 C 1214.408 1086.746 1196.808 1129.446 1168.508 1166.646 C 1161.708 1175.446 1146.708 1192.646 1145.708 1192.646 C 1145.308 1192.646 1143.308 1189.946 1141.208 1186.646 L 1137.308 1180.746 L 1139.308 1177.946 C 1140.408 1176.446 1142.508 1174.046 1144.008 1172.646 C 1145.508 1171.246 1150.208 1165.646 1154.408 1160.146 C 1181.508 1125.146 1197.408 1088.646 1204.608 1045.646 C 1205.208 1041.546 1206.108 1037.746 1206.508 1037.346 C 1207.208 1036.546 1214.808 1034.946 1219.308 1034.746 C 1221.408 1034.646 1221.508 1034.946 1220.908 1038.846 Z  M 705.208 1037.146 C 709.808 1037.846 709.808 1037.946 712.108 1052.146 C 714.808 1068.946 724.908 1099.446 733.708 1117.146 C 742.008 1133.746 754.508 1152.846 765.808 1165.846 L 771.708 1172.746 L 767.808 1178.646 C 765.708 1181.946 763.608 1184.646 763.008 1184.546 C 761.808 1184.446 751.708 1172.646 744.308 1162.646 C 730.608 1143.946 717.108 1119.046 709.108 1097.546 C 704.608 1085.246 698.908 1063.746 696.408 1049.346 C 693.908 1034.646 693.908 1035.346 697.808 1035.946 C 699.508 1036.246 702.908 1036.846 705.208 1037.146 Z  M 1199.508 1038.846 C 1199.408 1042.246 1196.408 1058.546 1194.508 1065.446 C 1183.408 1106.146 1165.108 1140.246 1138.708 1169.646 L 1133.808 1175.046 L 1130.908 1170.946 C 1129.308 1168.646 1122.308 1158.046 1115.408 1147.446 C 1108.408 1136.846 1092.108 1112.046 1079.108 1092.246 C 1066.008 1072.546 1055.608 1056.146 1055.908 1055.946 C 1056.208 1055.646 1077.208 1052.746 1102.708 1049.546 C 1128.208 1046.346 1158.708 1042.346 1170.508 1040.746 C 1195.308 1037.446 1199.508 1037.146 1199.508 1038.846 Z  M 747.508 1042.646 C 763.708 1044.746 791.608 1048.446 809.508 1050.646 C 827.408 1052.946 843.208 1055.046 844.708 1055.446 C 847.408 1056.146 847.008 1056.646 811.708 1111.346 C 792.108 1141.746 775.608 1166.546 775.108 1166.646 C 774.608 1166.646 773.708 1166.046 773.108 1165.246 C 762.908 1152.446 752.808 1138.346 748.608 1131.346 C 734.408 1107.746 723.208 1078.346 718.008 1050.946 C 716.308 1042.346 716.108 1038.646 717.308 1038.646 C 717.708 1038.646 731.308 1040.446 747.508 1042.646 Z  M 874.008 1059.146 C 885.008 1060.646 894.508 1062.246 895.008 1062.746 C 895.708 1063.446 890.608 1069.046 880.008 1079.446 C 851.208 1107.646 777.508 1178.946 768.208 1187.646 C 760.208 1195.046 759.408 1195.646 761.608 1192.046 C 762.908 1189.846 783.308 1158.246 806.908 1121.846 C 843.808 1064.946 850.208 1055.746 851.908 1056.146 C 853.108 1056.346 863.008 1057.746 874.008 1059.146 Z  M 1025.508 1077.446 C 1043.308 1095.546 1056.708 1109.346 1096.508 1150.646 C 1112.108 1166.846 1130.108 1185.546 1136.408 1192.046 C 1145.308 1201.146 1147.108 1203.346 1144.008 1201.546 C 1141.808 1200.246 1116.808 1183.946 1088.508 1165.246 C 1060.208 1146.646 1029.108 1126.146 1019.508 1119.846 C 1009.908 1113.546 1001.808 1108.246 1001.608 1108.046 C 1001.208 1107.646 1006.508 1063.446 1007.208 1062.346 C 1008.308 1060.446 1011.208 1062.746 1025.508 1077.446 Z  M 901.808 1115.346 C 907.408 1159.746 915.908 1225.746 917.108 1234.446 C 917.908 1240.746 918.408 1246.046 918.208 1246.346 C 917.508 1247.046 902.408 1243.946 892.508 1241.046 C 856.108 1230.446 823.808 1212.746 796.808 1188.846 C 792.808 1185.346 789.808 1182.046 790.008 1181.546 C 790.308 1181.146 801.008 1174.046 813.808 1165.846 C 838.908 1149.746 852.908 1140.646 881.008 1122.446 C 890.908 1115.946 899.508 1110.646 900.108 1110.646 C 900.708 1110.646 901.508 1112.746 901.808 1115.346 Z  M 1022.608 1124.246 C 1033.308 1131.246 1054.408 1145.146 1069.508 1155.146 C 1084.608 1165.146 1102.108 1176.546 1108.308 1180.646 C 1121.508 1189.346 1121.908 1187.446 1104.508 1200.546 C 1077.608 1220.846 1047.808 1234.946 1014.808 1243.146 C 1004.208 1245.746 984.508 1248.946 983.708 1248.146 C 983.408 1247.946 984.008 1241.946 984.908 1234.946 C 985.808 1227.946 989.408 1199.146 993.008 1171.146 C 1001.308 1105.846 1000.608 1110.446 1002.008 1111.046 C 1002.608 1111.246 1011.908 1117.246 1022.608 1124.246 Z  M 791.308 1192.446 C 817.908 1215.846 847.608 1232.946 880.308 1243.646 C 891.308 1247.246 913.308 1252.646 916.908 1252.646 C 919.008 1252.646 920.208 1255.846 920.608 1262.646 L 921.008 1268.146 L 917.508 1267.846 C 911.008 1267.246 899.108 1264.546 884.508 1260.446 C 849.508 1250.546 818.908 1234.446 789.008 1210.146 C 779.708 1202.546 770.808 1193.946 771.608 1193.346 C 772.608 1192.446 783.008 1185.646 783.308 1185.646 C 783.508 1185.646 787.108 1188.646 791.308 1192.446 Z  M 1132.308 1196.446 L 1137.708 1199.846 L 1135.308 1202.346 C 1131.508 1206.546 1114.108 1220.246 1104.708 1226.446 C 1086.908 1238.346 1063.708 1249.846 1043.908 1256.546 C 1025.008 1262.946 994.208 1269.646 983.608 1269.646 L 980.408 1269.646 L 981.008 1264.846 C 982.408 1254.146 981.408 1255.146 992.308 1253.746 C 1015.608 1250.746 1046.008 1241.346 1068.008 1230.446 C 1084.508 1222.246 1104.408 1209.146 1118.508 1197.346 C 1122.108 1194.346 1125.508 1192.146 1126.008 1192.446 C 1126.608 1192.746 1129.408 1194.546 1132.308 1196.446 Z  M 777.308 1207.946 C 795.608 1224.146 807.308 1232.446 828.108 1243.846 C 853.708 1258.046 889.508 1270.146 917.608 1274.046 L 922.208 1274.746 L 924.808 1295.446 C 934.708 1374.146 938.908 1406.946 941.508 1426.646 C 943.208 1438.946 944.508 1449.446 944.508 1449.846 C 944.508 1451.146 929.208 1450.746 914.308 1449.146 C 893.808 1446.946 862.508 1441.546 847.908 1437.546 C 793.608 1422.946 750.208 1403.046 705.208 1372.346 C 689.008 1361.346 665.508 1342.246 651.108 1328.446 L 639.208 1317.146 L 657.608 1299.546 C 716.608 1243.246 764.808 1197.646 765.308 1197.646 C 765.508 1197.646 770.908 1202.246 777.308 1207.946 Z  M 1205.508 1259.946 C 1237.708 1289.646 1265.808 1315.646 1267.908 1317.746 L 1271.908 1321.546 L 1263.408 1329.446 C 1249.008 1342.946 1239.508 1350.946 1226.008 1361.046 C 1163.208 1408.446 1093.008 1437.146 1014.808 1447.546 C 999.608 1449.646 958.908 1452.346 957.908 1451.346 C 957.608 1451.146 958.808 1440.146 960.508 1427.046 C 962.108 1413.846 965.108 1390.546 967.108 1375.146 C 976.408 1300.646 979.708 1277.146 980.808 1276.446 C 981.508 1276.046 983.608 1275.646 985.608 1275.646 C 990.508 1275.646 1013.908 1271.346 1026.208 1268.246 C 1065.408 1258.246 1107.808 1235.646 1137.508 1208.846 C 1142.208 1204.646 1143.308 1204.046 1145.008 1204.946 C 1146.108 1205.546 1173.308 1230.246 1205.508 1259.946 Z " fill="rgb(35,31,32)"/><path d=" M 921.508 584.046 C 921.508 590.546 923.908 611.346 924.708 612.146 C 925.808 613.146 925.108 592.846 923.908 585.846 C 923.308 582.646 921.508 581.346 921.508 584.046 Z " fill="rgb(0,0,0)"/><path d=" M 891.008 586.846 C 890.408 588.446 894.008 614.446 895.008 615.546 C 896.508 617.046 896.508 613.346 895.008 602.546 C 892.908 587.746 892.008 584.446 891.008 586.846 Z " fill="rgb(0,0,0)"/><path d=" M 859.508 592.646 C 859.508 594.346 865.608 621.046 866.108 621.546 C 866.308 621.846 866.908 621.546 867.308 621.046 C 868.308 619.946 861.608 591.646 860.408 591.646 C 859.908 591.646 859.508 592.146 859.508 592.646 Z " fill="rgb(0,0,0)"/><path d=" M 829.308 600.146 C 829.008 600.446 830.508 606.346 832.608 613.246 C 834.808 620.146 836.508 626.446 836.508 627.246 C 836.508 628.046 837.208 628.646 838.108 628.646 C 838.908 628.646 839.508 628.046 839.308 627.346 C 837.608 620.346 830.908 599.646 830.508 599.646 C 830.108 599.646 829.608 599.846 829.308 600.146 Z " fill="rgb(0,0,0)"/><path d=" M 799.508 611.646 C 799.508 613.546 809.908 638.646 810.708 638.646 C 811.108 638.646 811.508 638.146 811.508 637.546 C 811.508 635.346 801.308 610.646 800.408 610.646 C 799.908 610.646 799.508 611.046 799.508 611.646 Z " fill="rgb(0,0,0)"/><path d=" M 770.608 624.346 C 770.608 624.846 773.508 630.946 776.908 638.146 C 781.408 647.246 783.508 650.646 783.908 649.546 C 784.708 647.646 773.208 623.646 771.508 623.646 C 770.908 623.646 770.508 623.946 770.608 624.346 Z " fill="rgb(0,0,0)"/><path d=" M 743.208 638.346 C 742.308 639.846 756.808 664.446 758.308 663.946 C 759.308 663.546 759.308 663.046 758.208 661.246 C 757.408 660.146 754.208 654.646 751.108 649.146 C 744.708 638.046 744.008 637.046 743.208 638.346 Z " fill="rgb(0,0,0)"/><path d=" M 716.208 655.246 C 715.308 656.146 731.708 679.646 733.308 679.646 C 735.108 679.646 735.208 679.846 726.008 666.346 C 718.108 654.846 717.408 654.046 716.208 655.246 Z " fill="rgb(0,0,0)"/><path d=" M 690.508 674.146 C 690.508 675.546 708.908 697.546 709.608 697.046 C 710.808 696.346 710.408 695.746 701.008 683.846 C 696.608 678.246 692.408 673.746 691.808 673.646 C 691.108 673.646 690.508 673.846 690.508 674.146 Z " fill="rgb(0,0,0)"/><path d=" M 667.308 694.246 C 666.508 694.946 669.608 698.746 680.308 709.946 C 683.908 713.646 687.108 716.346 687.608 715.946 C 688.008 715.546 683.808 710.246 678.208 704.346 C 672.608 698.346 667.708 693.746 667.308 694.246 Z " fill="rgb(0,0,0)"/><path d=" M 985.708 596.846 C 985.108 604.646 984.908 611.446 985.108 611.846 C 986.608 614.146 987.308 611.546 987.908 601.846 C 988.308 595.946 988.808 589.246 989.108 586.846 C 989.608 583.546 989.408 582.646 988.308 582.646 C 987.108 582.646 986.608 585.546 985.708 596.846 Z " fill="rgb(0,0,0)"/><path d=" M 1018.208 587.846 C 1016.808 593.746 1014.208 614.646 1014.808 615.246 C 1015.208 615.646 1015.708 615.746 1015.908 615.546 C 1016.908 614.446 1020.408 587.146 1019.608 586.346 C 1019.108 585.846 1018.508 586.446 1018.208 587.846 Z " fill="rgb(0,0,0)"/><path d=" M 1049.108 592.746 C 1048.608 594.246 1043.808 615.946 1043.308 618.846 C 1043.108 619.746 1043.408 620.646 1044.008 620.846 C 1045.308 621.246 1051.808 593.546 1050.508 592.246 C 1049.908 591.646 1049.408 591.846 1049.108 592.746 Z " fill="rgb(0,0,0)"/><path d=" M 1075.608 613.546 C 1071.208 627.346 1071.008 628.646 1072.508 628.646 C 1073.008 628.646 1074.808 624.046 1076.508 618.346 C 1078.308 612.746 1080.108 606.846 1080.608 605.246 C 1081.708 601.646 1081.708 600.646 1080.608 600.646 C 1080.108 600.646 1077.908 606.446 1075.608 613.546 Z " fill="rgb(0,0,0)"/><path d=" M 1108.808 612.346 C 1108.408 613.346 1106.008 619.446 1103.408 625.946 C 1100.808 632.546 1099.208 637.946 1099.708 638.246 C 1100.208 638.546 1100.808 638.646 1100.908 638.546 C 1101.508 637.746 1111.508 612.146 1111.508 611.346 C 1111.508 609.946 1109.408 610.646 1108.808 612.346 Z " fill="rgb(0,0,0)"/><path d=" M 1135.608 629.046 C 1133.908 632.646 1130.908 638.846 1129.008 642.646 C 1127.008 646.546 1125.908 649.846 1126.508 650.146 C 1127.908 651.046 1140.908 624.646 1139.608 623.346 C 1138.908 622.646 1137.608 624.546 1135.608 629.046 Z " fill="rgb(0,0,0)"/><path d=" M 1159.008 650.146 C 1152.308 662.146 1151.708 663.346 1153.108 663.846 C 1154.008 664.246 1168.408 639.346 1167.808 638.346 C 1166.808 636.746 1165.708 638.246 1159.008 650.146 Z " fill="rgb(0,0,0)"/><path d=" M 1184.708 666.646 C 1180.208 673.246 1176.508 678.846 1176.508 679.146 C 1176.508 679.446 1177.108 679.646 1177.808 679.646 C 1179.008 679.546 1193.708 658.546 1194.308 655.946 C 1195.208 652.346 1192.108 655.746 1184.708 666.646 Z " fill="rgb(0,0,0)"/><path d=" M 1209.208 684.746 C 1204.308 690.846 1200.708 696.246 1201.208 696.746 C 1202.008 697.546 1219.508 676.546 1219.508 674.646 C 1219.508 672.346 1217.608 674.246 1209.208 684.746 Z " fill="rgb(0,0,0)"/><path d=" M 1232.308 704.346 C 1226.908 710.246 1222.908 715.446 1223.208 716.046 C 1223.908 717.146 1243.508 696.846 1243.508 694.846 C 1243.508 692.546 1242.008 693.846 1232.308 704.346 Z " fill="rgb(0,0,0)"/><path d=" M 645.008 716.546 C 644.408 717.546 651.508 724.846 662.708 734.546 C 668.708 739.746 667.908 736.446 661.708 730.546 C 646.908 716.446 645.708 715.446 645.008 716.546 Z " fill="rgb(0,0,0)"/><path d=" M 624.708 740.946 C 625.208 743.146 646.508 760.046 647.508 759.046 C 648.008 758.546 643.408 754.146 637.208 749.146 C 624.908 739.246 624.208 738.746 624.708 740.946 Z " fill="rgb(0,0,0)"/><path d=" M 605.508 766.446 C 605.508 767.946 629.408 783.646 630.008 782.546 C 630.408 781.946 630.508 781.446 630.408 781.246 C 630.208 781.146 625.008 777.546 618.808 773.346 C 608.108 766.046 605.508 764.646 605.508 766.446 Z " fill="rgb(0,0,0)"/><path d=" M 592.108 787.546 C 591.308 788.746 616.608 802.946 617.708 801.846 C 618.208 801.346 613.208 797.946 606.008 793.846 C 599.108 789.846 593.208 786.646 593.008 786.646 C 592.808 786.646 592.408 787.046 592.108 787.546 Z " fill="rgb(0,0,0)"/><path d=" M 574.008 820.646 C 573.608 821.246 577.408 823.546 582.708 826.046 C 587.808 828.446 593.908 831.346 596.208 832.446 C 598.708 833.746 600.608 834.246 601.008 833.646 C 601.508 832.946 576.908 819.646 575.108 819.646 C 574.808 819.646 574.308 820.146 574.008 820.646 Z " fill="rgb(0,0,0)"/><path d=" M 561.708 849.846 C 562.008 850.546 567.708 853.246 574.608 855.946 C 589.208 861.546 588.608 861.446 589.108 860.146 C 589.508 859.246 564.408 848.646 562.108 848.646 C 561.708 848.646 561.508 849.146 561.708 849.846 Z " fill="rgb(0,0,0)"/><path d=" M 550.508 879.346 C 550.508 880.146 575.908 888.646 578.408 888.646 C 584.108 888.646 565.408 881.346 553.808 879.046 C 552.008 878.646 550.508 878.846 550.508 879.346 Z " fill="rgb(0,0,0)"/><path d=" M 543.008 909.546 C 542.208 910.946 542.208 910.946 557.008 914.146 C 563.608 915.646 569.608 916.946 570.308 917.146 C 570.908 917.446 571.508 917.046 571.508 916.346 C 571.508 915.446 567.208 914.046 559.808 912.346 C 553.308 910.846 547.008 909.346 545.908 909.046 C 544.708 908.746 543.408 908.946 543.008 909.546 Z " fill="rgb(0,0,0)"/><path d=" M 536.508 940.646 C 536.508 941.646 537.108 941.746 554.808 944.446 C 564.308 945.946 566.508 946.046 566.508 944.946 C 566.508 944.246 566.108 943.646 565.608 943.646 C 565.108 943.646 558.808 942.746 551.508 941.646 C 536.208 939.346 536.508 939.346 536.508 940.646 Z " fill="rgb(0,0,0)"/><path d=" M 533.508 971.946 C 533.508 973.146 535.908 973.646 546.308 974.246 C 562.508 975.346 562.808 975.346 563.208 974.046 C 563.408 973.346 559.808 972.746 552.308 972.246 C 546.108 971.846 539.308 971.246 537.308 970.946 C 534.308 970.546 533.508 970.746 533.508 971.946 Z " fill="rgb(0,0,0)"/><path d=" M 1260.008 720.346 C 1246.408 732.746 1243.508 735.746 1244.008 736.646 C 1244.608 737.646 1266.208 719.046 1266.408 717.346 C 1266.608 715.646 1263.708 716.946 1260.008 720.346 Z " fill="rgb(0,0,0)"/><path d=" M 1274.008 748.746 C 1263.308 757.346 1261.108 759.646 1263.408 759.646 C 1264.608 759.646 1285.808 742.846 1286.308 741.546 C 1287.408 738.746 1283.508 741.046 1274.008 748.746 Z " fill="rgb(0,0,0)"/><path d=" M 1292.008 773.346 C 1278.908 782.346 1280.208 781.246 1280.708 782.646 C 1281.008 783.646 1304.708 768.246 1305.308 766.546 C 1306.208 764.246 1302.208 766.346 1292.008 773.346 Z " fill="rgb(0,0,0)"/><path d=" M 1309.108 798.646 C 1296.508 805.946 1294.808 807.146 1296.208 807.946 C 1296.908 808.346 1319.708 795.746 1321.808 793.646 C 1322.308 793.246 1322.308 792.646 1321.808 792.346 C 1321.308 792.046 1315.608 794.846 1309.108 798.646 Z " fill="rgb(0,0,0)"/><path d=" M 1323.108 825.646 C 1310.708 831.746 1307.808 833.646 1310.808 833.646 C 1313.208 833.646 1336.508 821.846 1336.508 820.646 C 1336.508 819.146 1335.908 819.346 1323.108 825.646 Z " fill="rgb(0,0,0)"/><path d=" M 1334.308 853.946 C 1326.808 856.846 1321.508 859.546 1321.508 860.346 C 1321.508 861.046 1321.608 861.646 1321.808 861.646 C 1323.908 861.346 1349.008 850.546 1349.308 849.746 C 1349.908 847.946 1347.808 848.546 1334.308 853.946 Z " fill="rgb(0,0,0)"/><path d=" M 1343.808 882.746 C 1337.008 884.946 1331.508 887.146 1331.508 887.646 C 1331.508 888.246 1332.008 888.646 1332.608 888.646 C 1335.008 888.646 1359.508 880.246 1359.508 879.446 C 1359.508 878.046 1356.408 878.646 1343.808 882.746 Z " fill="rgb(0,0,0)"/><path d=" M 1352.008 912.046 C 1344.808 913.746 1339.208 915.646 1339.508 916.146 C 1340.108 917.246 1339.808 917.246 1352.008 914.546 C 1366.208 911.346 1368.608 910.646 1368.008 909.646 C 1367.208 908.346 1367.008 908.346 1352.008 912.046 Z " fill="rgb(0,0,0)"/><path d=" M 1357.608 941.746 C 1350.808 942.746 1344.908 943.846 1344.708 944.146 C 1343.008 945.746 1346.908 945.846 1357.808 944.246 C 1371.908 942.246 1373.508 941.846 1373.508 940.546 C 1373.508 939.446 1372.708 939.446 1357.608 941.746 Z " fill="rgb(0,0,0)"/><path d=" M 1360.208 971.946 C 1351.608 972.546 1347.508 973.246 1347.808 974.046 C 1348.208 975.346 1348.508 975.346 1364.808 974.246 C 1374.608 973.646 1377.508 973.146 1377.508 972.046 C 1377.508 971.246 1376.608 970.746 1375.308 970.846 C 1374.008 970.846 1367.208 971.446 1360.208 971.946 Z " fill="rgb(0,0,0)"/><path d=" M 1347.508 1035.346 C 1347.508 1035.946 1351.108 1036.746 1355.808 1037.046 C 1360.308 1037.446 1367.008 1037.946 1370.808 1038.246 C 1377.708 1038.846 1380.408 1037.346 1374.308 1036.246 C 1367.108 1035.046 1347.508 1034.346 1347.508 1035.346 Z " fill="rgb(0,0,0)"/><path d=" M 1344.508 1064.546 C 1344.508 1065.446 1347.908 1066.146 1364.808 1068.746 C 1371.808 1069.846 1374.808 1069.546 1373.308 1068.046 C 1372.608 1067.446 1350.108 1063.646 1346.808 1063.646 C 1345.508 1063.646 1344.508 1064.046 1344.508 1064.546 Z " fill="rgb(0,0,0)"/><path d=" M 1338.908 1092.846 C 1338.608 1093.346 1338.508 1093.946 1338.708 1094.146 C 1339.908 1095.446 1366.908 1100.646 1367.708 1099.846 C 1368.308 1099.246 1365.308 1098.046 1359.308 1096.746 C 1354.208 1095.546 1347.608 1093.946 1344.708 1093.246 C 1341.408 1092.346 1339.308 1092.146 1338.908 1092.846 Z " fill="rgb(0,0,0)"/><path d=" M 1331.508 1122.146 C 1331.508 1122.946 1332.308 1123.646 1333.308 1123.646 C 1334.308 1123.646 1340.408 1125.446 1347.008 1127.646 C 1355.808 1130.646 1359.108 1131.346 1359.608 1130.446 C 1360.208 1129.546 1356.908 1128.146 1348.408 1125.546 C 1331.608 1120.346 1331.508 1120.346 1331.508 1122.146 Z " fill="rgb(0,0,0)"/><path d=" M 1321.508 1149.546 C 1321.508 1150.446 1346.208 1160.646 1348.408 1160.646 C 1351.908 1160.646 1348.008 1158.346 1336.508 1153.846 C 1323.108 1148.446 1321.508 1148.046 1321.508 1149.546 Z " fill="rgb(0,0,0)"/><path d=" M 1309.508 1176.546 C 1309.508 1176.946 1315.008 1179.946 1321.808 1183.146 C 1337.008 1190.246 1336.508 1190.046 1336.508 1188.746 C 1336.508 1187.646 1312.608 1175.646 1310.508 1175.646 C 1309.908 1175.646 1309.508 1176.046 1309.508 1176.546 Z " fill="rgb(0,0,0)"/><path d=" M 1295.508 1202.346 C 1295.608 1203.846 1320.908 1217.646 1321.808 1216.746 C 1322.308 1216.246 1317.508 1212.946 1310.208 1208.746 C 1298.308 1201.946 1295.508 1200.746 1295.508 1202.346 Z " fill="rgb(0,0,0)"/><path d=" M 1280.508 1226.946 C 1280.508 1228.646 1304.208 1244.946 1304.908 1243.746 C 1305.608 1242.646 1303.808 1241.146 1292.808 1233.846 C 1287.808 1230.446 1283.408 1227.246 1283.008 1226.646 C 1282.108 1225.246 1280.508 1225.446 1280.508 1226.946 Z " fill="rgb(0,0,0)"/><path d=" M 1263.108 1250.546 C 1262.208 1251.846 1284.808 1269.746 1285.908 1268.546 C 1286.408 1268.046 1286.708 1267.546 1286.408 1267.346 C 1286.208 1267.246 1281.508 1263.546 1276.008 1259.146 C 1270.508 1254.846 1265.508 1250.946 1264.808 1250.446 C 1264.208 1249.946 1263.408 1249.946 1263.108 1250.546 Z " fill="rgb(0,0,0)"/><path d=" M 1244.008 1272.646 C 1243.708 1273.146 1247.208 1277.246 1251.908 1281.746 C 1262.608 1291.846 1265.208 1293.946 1265.908 1292.746 C 1266.208 1292.246 1261.608 1287.346 1255.608 1281.746 C 1249.508 1276.146 1244.408 1272.046 1244.008 1272.646 Z " fill="rgb(0,0,0)"/><path d=" M 542.308 1035.546 C 535.008 1036.246 532.508 1036.946 533.708 1038.146 C 534.608 1039.046 561.908 1036.646 563.008 1035.546 C 564.008 1034.546 554.708 1034.546 542.308 1035.546 Z " fill="rgb(0,0,0)"/><path d=" M 548.708 1065.746 C 542.408 1066.746 537.008 1067.746 536.708 1068.046 C 535.008 1069.746 538.708 1069.846 548.808 1068.246 C 565.708 1065.646 566.508 1065.446 566.508 1064.546 C 566.508 1063.346 561.908 1063.646 548.708 1065.746 Z " fill="rgb(0,0,0)"/><path d=" M 556.708 1095.446 C 547.908 1097.546 542.708 1099.246 543.208 1099.746 C 544.108 1100.646 569.908 1095.546 571.208 1094.346 C 573.308 1092.146 569.108 1092.546 556.708 1095.446 Z " fill="rgb(0,0,0)"/><path d=" M 564.008 1124.846 C 549.508 1129.346 550.108 1129.146 550.908 1130.446 C 551.608 1131.646 578.808 1123.346 579.308 1121.746 C 579.808 1120.146 578.308 1120.446 564.008 1124.846 Z " fill="rgb(0,0,0)"/><path d=" M 574.108 1153.746 C 561.508 1158.946 560.808 1159.246 561.808 1160.346 C 562.708 1161.146 589.508 1150.646 589.508 1149.446 C 589.508 1147.846 585.908 1148.846 574.108 1153.746 Z " fill="rgb(0,0,0)"/><path d=" M 586.708 1181.446 C 579.108 1185.246 573.808 1188.346 574.308 1188.846 C 575.608 1190.146 601.708 1177.446 600.708 1176.046 C 600.208 1175.346 595.608 1177.046 586.708 1181.446 Z " fill="rgb(0,0,0)"/><path d=" M 608.508 1204.046 C 605.508 1205.946 599.708 1209.246 595.708 1211.646 C 591.208 1214.146 588.708 1216.246 589.208 1216.746 C 590.508 1218.046 615.508 1203.346 614.608 1201.846 C 614.208 1201.146 612.108 1201.946 608.508 1204.046 Z " fill="rgb(0,0,0)"/><path d=" M 617.008 1234.246 C 604.108 1243.146 605.108 1242.246 605.908 1243.546 C 606.608 1244.546 629.708 1229.446 630.308 1227.646 C 631.108 1225.346 627.308 1227.246 617.008 1234.246 Z " fill="rgb(0,0,0)"/><path d=" M 634.808 1258.946 C 628.408 1264.246 624.008 1268.546 624.508 1269.046 C 625.508 1270.046 648.708 1251.746 647.908 1250.446 C 647.008 1249.046 646.408 1249.546 634.808 1258.946 Z " fill="rgb(0,0,0)"/><path d=" M 655.108 1281.946 C 649.208 1287.546 644.608 1292.446 645.108 1292.846 C 645.508 1293.246 647.908 1291.746 650.408 1289.346 C 653.008 1287.046 657.908 1282.546 661.408 1279.346 C 665.108 1275.946 667.408 1273.146 666.908 1272.646 C 666.408 1272.146 661.408 1276.146 655.108 1281.946 Z " fill="rgb(0,0,0)"/><path d=" M 676.708 1303.346 C 671.208 1309.246 666.908 1314.546 667.208 1314.946 C 667.808 1315.946 672.208 1311.946 681.608 1301.446 C 685.408 1297.246 688.108 1293.546 687.608 1293.246 C 687.108 1292.946 682.208 1297.446 676.708 1303.346 Z " fill="rgb(0,0,0)"/><path d=" M 699.608 1323.246 C 694.208 1330.046 690.708 1335.246 691.208 1335.746 C 691.708 1336.246 696.008 1331.846 701.408 1325.046 C 706.708 1318.446 710.308 1313.046 709.808 1312.546 C 709.308 1312.046 704.908 1316.746 699.608 1323.246 Z " fill="rgb(0,0,0)"/><path d=" M 723.808 1341.646 C 719.308 1348.346 716.108 1353.846 716.608 1354.246 C 717.908 1355.046 716.908 1356.146 726.308 1342.446 C 733.408 1332.046 734.708 1329.546 732.608 1329.746 C 732.308 1329.746 728.308 1335.146 723.808 1341.646 Z " fill="rgb(0,0,0)"/><path d=" M 756.108 1346.446 C 755.808 1347.346 752.608 1353.046 749.008 1359.046 C 745.508 1365.046 742.808 1370.346 743.108 1370.846 C 744.108 1372.346 745.208 1370.846 751.008 1360.446 C 754.108 1354.846 757.308 1349.346 758.108 1348.046 C 759.408 1346.146 759.408 1345.846 758.108 1345.346 C 757.208 1344.946 756.408 1345.446 756.108 1346.446 Z " fill="rgb(0,0,0)"/><path d=" M 776.908 1371.446 C 773.708 1378.446 771.008 1384.446 771.008 1384.846 C 771.008 1387.746 773.408 1384.046 779.008 1372.746 C 783.508 1363.646 785.008 1359.646 784.108 1359.346 C 783.208 1358.946 780.808 1363.146 776.908 1371.446 Z " fill="rgb(0,0,0)"/><path d=" M 804.708 1383.646 C 799.308 1397.246 798.908 1398.646 800.408 1398.646 C 801.308 1398.646 811.508 1374.146 811.508 1371.846 C 811.508 1368.246 809.308 1372.046 804.708 1383.646 Z " fill="rgb(0,0,0)"/><path d=" M 837.508 1380.846 C 837.408 1381.046 835.508 1387.346 833.108 1394.946 C 830.708 1402.646 829.208 1408.946 829.708 1409.246 C 830.208 1409.546 830.808 1409.646 831.008 1409.546 C 831.308 1409.046 839.508 1382.046 839.508 1381.246 C 839.508 1380.646 837.508 1380.346 837.508 1380.846 Z " fill="rgb(0,0,0)"/><path d=" M 863.208 1399.346 C 859.608 1414.846 859.108 1417.646 860.308 1417.646 C 860.908 1417.646 862.808 1411.446 864.508 1403.846 C 866.308 1396.346 867.908 1389.846 868.208 1389.346 C 868.408 1388.946 868.008 1388.646 867.108 1388.646 C 866.108 1388.646 865.008 1391.746 863.208 1399.346 Z " fill="rgb(0,0,0)"/><path d=" M 893.908 1398.346 C 893.608 1401.046 892.508 1407.746 891.508 1413.346 C 890.108 1421.646 890.108 1423.646 891.108 1423.646 C 891.808 1423.646 892.708 1422.146 893.008 1420.346 C 894.708 1409.946 896.508 1397.846 896.508 1395.846 C 896.508 1391.746 894.608 1393.546 893.908 1398.346 Z " fill="rgb(0,0,0)"/><path d=" M 923.108 1405.346 C 922.808 1409.646 922.208 1416.146 921.908 1419.846 C 921.508 1424.046 921.708 1426.646 922.308 1426.646 C 923.808 1426.646 924.308 1423.546 925.108 1409.846 C 925.508 1401.846 925.408 1397.646 924.708 1397.646 C 924.208 1397.646 923.408 1401.146 923.108 1405.346 Z " fill="rgb(0,0,0)"/><path d=" M 1223.108 1293.446 C 1222.708 1294.146 1225.508 1297.846 1229.808 1302.346 C 1233.908 1306.646 1238.408 1311.446 1239.808 1313.146 C 1241.508 1315.146 1242.708 1315.846 1243.308 1315.146 C 1244.008 1314.446 1240.808 1310.446 1234.108 1303.246 C 1227.708 1296.546 1223.508 1292.746 1223.108 1293.446 Z " fill="rgb(0,0,0)"/><path d=" M 1200.508 1313.246 C 1200.508 1314.646 1218.008 1335.646 1219.208 1335.646 C 1221.208 1335.646 1220.808 1334.746 1217.308 1330.646 C 1215.508 1328.646 1211.408 1323.746 1208.208 1319.846 C 1203.108 1313.546 1200.508 1311.346 1200.508 1313.246 Z " fill="rgb(0,0,0)"/><path d=" M 1177.208 1330.246 C 1176.508 1331.046 1192.308 1354.646 1193.608 1354.646 C 1195.408 1354.646 1194.408 1352.646 1187.408 1342.446 C 1179.508 1330.946 1178.208 1329.346 1177.208 1330.246 Z " fill="rgb(0,0,0)"/><path d=" M 1152.908 1348.346 C 1153.708 1349.946 1156.808 1355.346 1159.908 1360.546 C 1162.908 1365.646 1165.608 1370.346 1165.808 1370.946 C 1166.008 1371.546 1166.608 1371.646 1167.308 1371.346 C 1168.708 1370.446 1154.608 1345.646 1152.708 1345.646 C 1151.708 1345.646 1151.808 1346.246 1152.908 1348.346 Z " fill="rgb(0,0,0)"/><path d=" M 1129.908 1368.846 C 1136.708 1383.446 1138.508 1386.746 1139.508 1386.146 C 1140.508 1385.546 1138.408 1380.446 1131.908 1367.346 C 1126.408 1356.246 1124.608 1357.546 1129.908 1368.846 Z " fill="rgb(0,0,0)"/><path d=" M 1099.308 1371.146 C 1098.708 1371.846 1108.108 1396.646 1109.508 1398.046 C 1112.008 1400.546 1111.308 1396.846 1107.708 1387.946 C 1105.508 1382.546 1103.208 1376.446 1102.508 1374.346 C 1101.408 1370.846 1100.508 1369.946 1099.308 1371.146 Z " fill="rgb(0,0,0)"/><path d=" M 1071.508 1381.746 C 1071.508 1384.146 1079.908 1409.646 1080.708 1409.646 C 1081.808 1409.646 1081.708 1407.646 1080.608 1404.046 C 1080.008 1402.446 1078.208 1396.546 1076.508 1390.846 C 1074.808 1385.246 1073.008 1380.646 1072.508 1380.646 C 1071.908 1380.646 1071.508 1381.146 1071.508 1381.746 Z " fill="rgb(0,0,0)"/><path d=" M 1043.108 1390.346 C 1043.308 1391.346 1044.608 1397.346 1046.008 1403.646 C 1049.208 1417.846 1049.308 1418.246 1050.508 1417.046 C 1051.808 1415.746 1045.408 1388.646 1043.808 1388.646 C 1043.208 1388.646 1042.908 1389.446 1043.108 1390.346 Z " fill="rgb(0,0,0)"/><path d=" M 1014.008 1395.846 C 1014.308 1397.146 1015.408 1403.746 1016.408 1410.546 C 1018.308 1422.446 1018.908 1424.546 1020.008 1423.446 C 1020.608 1422.846 1016.808 1395.946 1015.908 1394.546 C 1014.808 1392.746 1013.508 1393.746 1014.008 1395.846 Z " fill="rgb(0,0,0)"/><path d=" M 985.808 1397.446 C 984.008 1398.546 986.308 1426.646 988.208 1426.646 C 989.308 1426.646 989.408 1425.346 988.908 1420.346 C 988.608 1416.946 988.008 1410.246 987.708 1405.446 C 987.208 1399.046 986.708 1396.946 985.808 1397.446 Z " fill="rgb(0,0,0)"/><path d=" M 1561.808 1053.646 C 1541.108 1056.546 1519.808 1067.246 1503.608 1083.046 C 1471.008 1114.746 1464.308 1161.246 1486.508 1202.346 C 1491.708 1212.146 1497.608 1219.546 1506.608 1228.146 C 1519.008 1239.846 1531.508 1247.046 1549.008 1252.246 C 1557.208 1254.746 1559.508 1255.046 1573.508 1254.946 C 1586.008 1254.946 1590.508 1254.546 1596.708 1252.846 C 1630.608 1243.646 1655.608 1222.446 1668.708 1191.846 C 1679.208 1167.546 1678.108 1137.646 1666.008 1111.846 C 1652.208 1082.646 1624.208 1060.046 1595.008 1054.646 C 1586.608 1053.146 1569.208 1052.646 1561.808 1053.646 Z  M 1590.408 1098.546 C 1608.508 1104.146 1624.108 1120.246 1630.108 1139.346 C 1632.208 1146.346 1633.008 1159.146 1631.608 1165.946 C 1627.308 1186.246 1608.508 1204.746 1586.508 1210.246 C 1577.608 1212.446 1563.208 1211.746 1555.008 1208.646 C 1530.108 1199.146 1513.408 1170.946 1517.308 1144.946 C 1520.508 1124.046 1538.208 1104.846 1560.008 1098.546 C 1568.408 1096.046 1582.608 1096.146 1590.408 1098.546 Z " fill="rgb(255,145,77)"/><path d=" M 1436.708 1308.646 C 1426.508 1311.046 1413.108 1316.846 1404.508 1322.646 C 1393.308 1330.146 1383.008 1341.646 1363.608 1368.446 C 1348.008 1389.946 1345.408 1393.946 1346.608 1395.146 C 1347.708 1396.246 1490.508 1500.846 1501.108 1508.346 L 1504.208 1510.546 L 1516.108 1494.346 C 1538.508 1463.746 1543.708 1456.146 1547.508 1448.646 C 1555.308 1433.046 1559.208 1415.046 1558.108 1399.646 C 1554.808 1357.146 1525.608 1321.846 1483.508 1309.646 C 1472.608 1306.446 1448.408 1305.946 1436.708 1308.646 Z  M 1468.508 1351.246 C 1488.208 1355.846 1506.108 1372.046 1512.708 1391.246 C 1519.108 1409.746 1515.708 1426.746 1502.008 1445.946 L 1497.308 1452.446 L 1481.108 1440.646 C 1416.608 1393.346 1404.108 1384.046 1403.808 1383.146 C 1403.308 1381.446 1414.708 1367.146 1420.508 1362.246 C 1433.508 1351.146 1451.108 1347.146 1468.508 1351.246 Z " fill="rgb(255,145,77)"/><path d=" M 1285.508 1443.146 C 1275.908 1448.846 1267.908 1453.946 1267.708 1454.446 C 1267.608 1454.946 1281.408 1478.646 1298.508 1507.146 C 1315.608 1535.646 1329.408 1559.046 1329.308 1559.146 C 1329.108 1559.246 1306.308 1546.146 1278.508 1529.946 C 1250.708 1513.846 1223.608 1498.146 1218.308 1495.046 L 1208.608 1489.446 L 1190.008 1500.646 C 1179.808 1506.746 1171.608 1512.046 1171.808 1512.446 C 1176.208 1520.746 1272.908 1680.646 1273.508 1680.446 C 1273.908 1680.246 1282.108 1675.446 1291.908 1669.646 C 1304.108 1662.346 1309.408 1658.646 1309.208 1657.646 C 1308.908 1656.846 1295.008 1633.246 1278.208 1605.246 C 1261.308 1577.146 1247.608 1554.146 1247.808 1554.046 C 1248.008 1553.846 1279.608 1572.046 1340.208 1607.246 L 1368.408 1623.646 L 1386.208 1613.046 C 1396.008 1607.146 1404.408 1602.046 1404.808 1601.646 C 1405.708 1600.846 1305.508 1433.446 1303.908 1432.946 C 1303.408 1432.846 1295.108 1437.446 1285.508 1443.146 Z " fill="rgb(255,145,77)"/><path d=" M 717.208 1490.346 C 717.008 1490.746 695.308 1529.146 669.008 1575.646 C 642.808 1622.146 620.708 1661.146 619.908 1662.346 C 618.608 1664.446 618.908 1664.646 641.208 1672.046 C 653.708 1676.246 664.008 1679.546 664.108 1679.346 C 664.208 1679.246 678.608 1652.546 696.008 1620.146 C 713.408 1587.646 728.108 1560.746 728.608 1560.146 C 729.108 1559.646 729.308 1562.146 729.008 1566.646 C 728.708 1570.746 727.308 1598.846 726.008 1629.146 C 724.608 1659.346 723.308 1687.546 723.008 1691.746 L 722.408 1699.446 L 742.208 1706.046 C 753.108 1709.646 762.308 1712.646 762.608 1712.646 C 763.008 1712.646 781.008 1686.746 802.608 1655.146 C 824.208 1623.546 842.108 1597.846 842.308 1598.046 C 842.608 1598.446 823.208 1724.646 822.008 1730.246 C 821.608 1732.246 823.308 1733.046 844.008 1740.146 C 856.408 1744.446 866.708 1747.746 866.908 1747.546 C 867.108 1747.346 873.108 1702.646 880.308 1648.146 C 890.108 1574.246 893.108 1548.946 892.208 1548.446 C 891.508 1548.046 880.508 1544.246 867.708 1539.946 C 852.108 1534.746 844.208 1532.546 843.708 1533.246 C 837.908 1541.946 762.208 1649.646 762.008 1649.446 C 761.908 1649.246 762.808 1619.246 764.108 1582.646 C 765.408 1546.046 766.408 1513.846 766.508 1511.146 L 766.508 1506.146 L 743.208 1498.246 C 730.508 1493.946 719.508 1490.146 718.908 1489.946 C 718.208 1489.746 717.508 1489.846 717.208 1490.346 Z " fill="rgb(255,145,77)"/><path d=" M 1100.708 1532.646 C 1090.008 1534.246 1081.108 1535.746 1080.808 1536.046 C 1080.508 1536.346 1084.008 1562.946 1088.508 1595.246 C 1095.508 1645.146 1096.708 1655.546 1096.308 1664.046 C 1096.008 1672.946 1095.608 1674.846 1093.008 1679.646 C 1089.308 1686.346 1083.708 1690.746 1074.808 1693.746 C 1069.108 1695.746 1066.008 1696.146 1056.008 1696.146 C 1044.508 1696.146 1043.808 1696.046 1038.608 1693.146 C 1035.408 1691.446 1031.808 1688.246 1029.808 1685.646 C 1023.808 1677.446 1022.308 1670.046 1013.508 1607.146 C 1008.908 1574.646 1004.908 1547.746 1004.508 1547.346 C 1003.908 1546.646 964.208 1551.546 962.608 1552.646 C 962.108 1552.946 963.508 1565.046 965.508 1579.646 C 967.608 1594.246 971.608 1622.746 974.508 1642.946 C 977.308 1663.146 980.508 1682.946 981.608 1686.946 C 988.808 1713.146 1006.008 1731.246 1030.208 1737.846 C 1040.508 1740.646 1062.808 1740.846 1075.808 1738.346 C 1115.208 1730.546 1136.908 1709.046 1140.508 1674.446 C 1141.708 1662.446 1141.208 1657.546 1131.508 1589.046 C 1127.108 1557.646 1123.508 1531.446 1123.508 1530.746 C 1123.508 1529.346 1123.908 1529.346 1100.708 1532.646 Z " fill="rgb(255,145,77)"/></g></g></g></svg>